<?xml version="1.0" standalone="no"?>
<!DOCTYPE svg PUBLIC "-//W3C//DTD SVG 20010904//EN"
 "http://www.w3.org/TR/2001/REC-SVG-20010904/DTD/svg10.dtd">
<svg version="1.0" xmlns="http://www.w3.org/2000/svg"
 width="424.000000pt" height="424.000000pt" viewBox="0 0 424.000000 424.000000"
 preserveAspectRatio="xMidYMid meet">
<metadata>
Created by potrace 1.11, written by Peter Selinger 2001-2013
</metadata>
<g transform="translate(0.000000,424.000000) scale(0.100000,-0.100000)"
fill="#000000" stroke="none">
<path d="M2159 3875 c-3 -2 -48 -12 -99 -21 -90 -15 -209 -49 -275 -79 -89
-39 -124 -57 -161 -82 -23 -16 -59 -40 -80 -54 -50 -34 -199 -191 -220 -232
-9 -18 -22 -39 -29 -47 -17 -20 -85 -150 -85 -161 0 -5 -9 -28 -19 -52 -28
-62 -67 -193 -79 -267 -28 -161 -32 -193 -37 -325 -8 -169 12 -449 43 -610 27
-139 92 -359 133 -452 11 -24 19 -45 19 -48 0 -10 99 -204 118 -232 10 -15 37
-55 58 -88 21 -33 82 -103 134 -155 79 -80 109 -103 182 -138 47 -23 99 -42
115 -42 16 0 34 -5 40 -11 7 -7 70 -13 165 -16 176 -5 181 -7 176 -87 l-3 -49
-60 -14 c-33 -7 -82 -18 -110 -24 -64 -14 -141 -43 -237 -91 -87 -43 -189
-132 -238 -207 -37 -59 -61 -162 -53 -236 5 -50 8 -55 29 -55 19 0 24 5 24 25
0 26 31 65 52 65 6 0 19 7 28 15 9 8 50 19 91 25 41 5 97 14 124 20 111 24
236 40 425 55 162 14 223 15 337 6 230 -18 365 -44 495 -93 29 -11 46 -47 42
-90 l-3 -28 182 0 c110 0 176 4 168 9 -12 8 -12 21 -2 84 40 251 -124 443
-444 521 -96 23 -268 46 -347 46 -45 0 -53 12 -61 95 -4 33 -9 79 -13 101 -6
42 -6 42 52 84 80 58 212 193 256 260 73 113 137 256 156 350 6 30 18 90 26
133 20 96 20 211 1 482 -8 116 -15 259 -15 319 0 60 -5 150 -10 200 -22 189
-31 262 -40 296 -5 19 -14 62 -21 95 -7 33 -15 65 -19 70 -3 6 -12 35 -19 65
-27 112 -158 349 -244 440 -50 53 -105 94 -177 130 -36 18 -73 37 -83 42 -62
31 -368 73 -388 53z m162 -106 c41 -26 105 -89 174 -171 31 -37 138 -218 162
-273 94 -220 153 -430 193 -685 73 -476 80 -776 25 -1075 -16 -83 -43 -192
-55 -220 -5 -11 -16 -45 -25 -75 -21 -68 -119 -256 -148 -286 -50 -50 -184
-104 -342 -138 -60 -13 -141 -31 -180 -40 -86 -20 -128 -20 -199 -2 -220 58
-413 249 -571 566 -20 41 -41 85 -46 98 -5 12 -13 32 -18 45 -32 75 -61 161
-76 222 -9 39 -22 93 -30 120 -7 28 -18 82 -25 120 -6 39 -15 90 -20 115 -5
25 -14 117 -21 205 -40 532 129 1025 435 1266 188 148 420 233 650 238 61 1
75 -2 117 -30z m664 -3209 c17 -4 57 -13 90 -20 33 -7 76 -20 95 -29 29 -14
36 -23 38 -54 2 -27 13 -46 42 -73 46 -44 63 -97 45 -141 -18 -42 -64 -86 -84
-80 -9 3 -54 19 -101 35 -133 46 -232 56 -540 57 -272 0 -427 -11 -555 -40
-33 -7 -91 -19 -130 -26 -70 -13 -117 -29 -210 -75 -28 -13 -54 -24 -58 -24
-12 0 -8 65 6 96 45 104 157 210 262 251 67 25 143 51 185 63 25 7 56 16 70
21 14 4 45 9 69 11 l45 3 12 -65 c10 -54 17 -69 47 -95 72 -63 240 -79 322
-30 61 35 97 91 102 158 7 84 0 79 115 72 57 -4 117 -10 133 -15z"/>
<path d="M2286 2987 c-51 -15 -144 -103 -152 -146 -4 -17 -11 -34 -15 -37 -13
-8 -11 -120 3 -168 13 -45 53 -109 89 -143 85 -78 263 -65 372 28 66 57 87
103 89 192 2 94 -32 162 -111 222 -81 62 -175 80 -275 52z"/>
<path d="M1395 2973 c-67 -15 -159 -94 -182 -156 -19 -52 -15 -166 6 -212 47
-100 143 -165 244 -165 71 0 160 36 207 83 64 64 74 90 73 187 0 125 -35 182
-147 243 -40 22 -61 27 -115 26 -36 -1 -75 -3 -86 -6z"/>
<path d="M1745 2434 c-31 -8 -67 -26 -105 -56 -19 -15 -64 -38 -100 -51 -36
-14 -78 -32 -95 -40 -16 -8 -63 -29 -102 -47 -76 -34 -87 -52 -64 -98 5 -9 15
-30 22 -46 8 -16 30 -41 50 -55 28 -20 38 -36 47 -76 16 -70 15 -134 -4 -186
-21 -58 -44 -166 -44 -206 0 -26 4 -32 29 -38 15 -3 34 -5 41 -3 8 2 18 -16
26 -47 7 -27 21 -55 30 -62 32 -23 613 -13 1019 18 110 8 143 14 153 27 7 9 9
23 6 32 -4 8 -10 123 -14 255 -7 240 -14 287 -45 299 -23 9 -237 7 -525 -4
-485 -18 -637 -20 -600 -9 181 54 311 98 352 120 10 5 24 9 32 9 8 0 31 16 52
35 36 34 37 36 31 91 -6 56 -34 101 -77 124 -21 11 -91 19 -115 14z m82 -55
c50 -27 73 -57 73 -96 0 -35 -29 -63 -65 -63 -12 0 -25 -4 -30 -8 -6 -5 -41
-18 -80 -31 -38 -13 -83 -29 -100 -36 -29 -14 -50 -11 -40 5 7 11 -15 71 -34
93 -14 17 -14 20 4 34 31 23 214 122 227 123 4 0 24 -9 45 -21z m-297 -169
c11 -11 20 -31 20 -45 0 -30 -32 -65 -60 -65 -14 0 -20 7 -20 21 0 12 -16 36
-36 54 l-36 33 29 10 c45 16 81 14 103 -8z m-121 -71 c17 -17 31 -34 31 -39 0
-15 -30 -32 -57 -32 -25 0 -35 9 -82 67 -15 20 1 35 39 35 30 0 46 -7 69 -31z
m1145 -251 c3 -68 10 -168 15 -223 8 -96 2 -133 -20 -119 -5 3 -9 1 -9 -4 0
-5 -57 -12 -127 -15 -71 -4 -164 -11 -208 -16 -127 -15 -707 -18 -712 -4 -9
26 73 32 517 36 308 3 464 8 483 15 26 11 27 14 27 84 0 40 5 116 10 168 6 60
5 111 -1 138 -9 42 -6 62 10 62 5 0 11 -55 15 -122z m-1086 61 c-22 -30 -23
-30 -26 -9 -4 23 12 40 36 40 8 0 4 -11 -10 -31z m979 -11 c-2 -18 -14 -67
-26 -108 -12 -41 -30 -105 -40 -143 -10 -37 -20 -69 -22 -71 -3 -4 -194 -9
-225 -7 -17 1 9 102 75 286 l18 50 94 11 c52 6 102 12 113 12 15 2 17 -3 13
-30z m-505 -16 c-2 -12 -26 -74 -53 -138 -27 -63 -49 -127 -49 -142 0 -45 -10
-50 -110 -53 l-95 -4 1 30 c2 37 29 138 50 183 17 36 30 102 21 102 -16 0 -92
-195 -101 -262 l-7 -48 -95 0 c-130 0 -128 -14 -36 227 l47 123 94 0 c78 0 96
-3 107 -17 12 -17 13 -17 14 -1 0 22 20 26 125 25 88 -2 90 -3 87 -25z m532
-149 c3 -42 6 -96 6 -120 0 -44 0 -44 -32 -41 -37 3 -38 5 -18 108 7 36 14 80
17 98 9 54 20 36 27 -45z"/>
<path d="M1820 2320 c0 -11 6 -20 13 -20 19 0 27 10 20 26 -8 21 -33 17 -33
-6z"/>
<path d="M2405 101 c-8 -26 4 -51 26 -51 15 0 19 7 19 35 0 28 -4 35 -19 35
-11 0 -22 -8 -26 -19z"/>
<path d="M2711 106 c-16 -20 3 -56 29 -56 23 0 36 36 20 55 -16 19 -34 19 -49
1z"/>
<path d="M2154 85 c-9 -23 4 -47 23 -43 11 2 19 14 21 31 3 22 -1 27 -18 27
-11 0 -23 -7 -26 -15z"/>
<path d="M1904 46 c-9 -24 3 -46 26 -46 17 0 21 5 18 27 -3 31 -34 44 -44 19z"/>
<path d="M2977 43 c-4 -3 -7 -15 -7 -25 0 -12 7 -18 24 -18 29 0 39 12 30 34
-6 16 -35 22 -47 9z"/>
</g>
</svg>
